<svg width="100" height="100" viewBox="0 0 100 100" fill="none" xmlns="http://www.w3.org/2000/svg">
<rect x="45" y="90" width="10" height="10" fill="#0F6436"/>
<rect x="45" y="80" width="10" height="10" fill="#0F6436"/>
<rect x="45" y="70" width="10" height="10" fill="#0F6436"/>
<rect x="45" y="60" width="10" height="10" fill="#0F6436"/>
<rect x="45" y="50" width="10" height="10" fill="#0F6436"/>
<rect x="50" y="40" width="10" height="10" fill="#0F6436"/>
<rect x="55" y="30" width="10" height="10" fill="#0F6436"/>
<rect x="55" y="20" width="10" height="10" fill="#0F6436"/>
<rect x="60" y="15" width="10" height="10" fill="#0F6436"/>
<rect x="65" y="20" width="10" height="10" fill="#0F6436"/>
<rect x="40" y="40" width="10" height="10" fill="#0F6436"/>
<rect x="35" y="30" width="10" height="10" fill="#0F6436"/>
<rect x="35" y="20" width="10" height="10" fill="#0F6436"/>
<rect x="25" y="20" width="10" height="10" fill="#0F6436"/>
<rect x="30" y="15" width="10" height="10" fill="#0F6436"/>
<rect x="45" y="30" width="10" height="10" fill="#0F6436"/>
</svg>
