<svg width="100" height="100" viewBox="0 0 100 100" fill="none" xmlns="http://www.w3.org/2000/svg">
<rect x="65" y="25" width="10" height="10" fill="#0F6436"/>
<rect x="45" y="80" width="10" height="20" fill="#0F6436"/>
<rect x="45" y="80" width="10" height="10" fill="#0F6436"/>
<rect x="45" y="67" width="10" height="13" fill="#0F6436"/>
<rect x="40" y="40" width="13" height="10" fill="#0F6436"/>
<rect x="45" y="60" width="10" height="10" fill="#0F6436"/>
<rect x="45" y="47" width="10" height="13" fill="#0F6436"/>
<rect x="50" y="40" width="10" height="10" fill="#0F6436"/>
<rect x="55" y="35" width="10" height="10" fill="#0F6436"/>
<rect x="60" y="30" width="10" height="10" fill="#0F6436"/>
<rect x="45" y="20" width="10" height="10" fill="#F7A301"/>
<rect x="45" y="20" width="10" height="10" fill="#F7A301"/>
<rect x="45" y="20" width="10" height="10" fill="#F7A301"/>
<rect x="45" y="35" width="10" height="10" fill="#0F6436"/>
<rect x="25" y="25" width="10" height="10" fill="#0F6436"/>
<rect x="45" y="5" width="10" height="10" fill="#F7A301"/>
<rect x="45" y="5" width="10" height="10" fill="#F7A301"/>
<rect x="45" y="5" width="10" height="10" fill="#FF0000"/>
<rect x="30" y="30" width="10" height="10" fill="#0F6436"/>
<rect x="35" y="35" width="10" height="10" fill="#0F6436"/>
<rect x="30" y="20" width="10" height="10" fill="#F7A301"/>
<rect x="30" y="20" width="10" height="10" fill="#F7A301"/>
<rect x="30" y="20" width="10" height="10" fill="#FF0000"/>
<rect x="60" y="20" width="10" height="10" fill="#F7A301"/>
<rect x="60" y="20" width="10" height="10" fill="#F7A301"/>
<rect x="60" y="20" width="10" height="10" fill="#FF0000"/>
<rect x="40" y="59" width="10" height="10" fill="#0F6436"/>
<rect x="42" y="81" width="10" height="10" fill="#0F6436"/>
<rect x="48" y="81" width="10" height="10" fill="#0F6436"/>
<rect x="50" y="77" width="15" height="10" fill="#0F6436"/>
<rect x="60" y="72" width="10" height="10" fill="#0F6436"/>
<rect x="65" y="67" width="10" height="10" fill="#0F6436"/>
<rect x="35" y="77" width="15" height="10" fill="#0F6436"/>
<rect x="30" y="72" width="10" height="10" fill="#0F6436"/>
<rect x="25" y="67" width="10" height="10" fill="#0F6436"/>
<rect x="35" y="55" width="13" height="10" fill="#0F6436"/>
<rect x="30" y="51" width="10" height="10" fill="#0F6436"/>
<rect x="25" y="47" width="10" height="10" fill="#0F6436"/>
<rect x="20" y="43" width="10" height="10" fill="#0F6436"/>
<rect x="25" y="47" width="10" height="10" fill="#0F6436"/>
<rect x="47" y="59" width="13" height="10" fill="#0F6436"/>
<rect x="52" y="55" width="13" height="10" fill="#0F6436"/>
<rect x="60" y="51" width="10" height="10" fill="#0F6436"/>
<rect x="65" y="47" width="10" height="10" fill="#0F6436"/>
<rect x="65" y="47" width="10" height="10" fill="#0F6436"/>
<rect x="70" y="42" width="10" height="10" fill="#0F6436"/>
<path d="M55 20H65V30H55V20Z" fill="#F7A301"/>
<path d="M55 20H65V30H55V20Z" fill="#F7A301"/>
<path d="M55 20H65V30H55V20Z" fill="#FF0000"/>
<path d="M42 30H55V40H42V30Z" fill="#F7A301"/>
<path d="M42 30H55V40H42V30Z" fill="#F7A301"/>
<path d="M42 30H55V40H42V30Z" fill="#FF0000"/>
<path d="M40 10H55V20H40V10Z" fill="#F7A301"/>
<path d="M40 10H55V20H40V10Z" fill="#F7A301"/>
<path d="M40 10H55V20H40V10Z" fill="#FF0000"/>
<path d="M53 10H65V20H53V10Z" fill="#F7A301"/>
<path d="M53 10H65V20H53V10Z" fill="#F7A301"/>
<path d="M53 10H65V20H53V10Z" fill="#FF0000"/>
<path d="M50 35H60V45H50V35Z" fill="#F7A301"/>
<path d="M50 35H60V45H50V35Z" fill="#F7A301"/>
<path d="M50 35H60V45H50V35Z" fill="#FF0000"/>
<path d="M40 35H50V45H40V35Z" fill="#F7A301"/>
<path d="M40 35H50V45H40V35Z" fill="#F7A301"/>
<path d="M40 35H50V45H40V35Z" fill="#FF0000"/>
<path d="M60 23H70V35H60V23Z" fill="#F7A301"/>
<path d="M60 23H70V35H60V23Z" fill="#F7A301"/>
<path d="M60 23H70V35H60V23Z" fill="#FF0000"/>
<path d="M52 30H62V40H52V30Z" fill="#F7A301"/>
<path d="M52 30H62V40H52V30Z" fill="#F7A301"/>
<path d="M52 30H62V40H52V30Z" fill="#FF0000"/>
<path d="M60 15H70V25H60V15Z" fill="#F7A301"/>
<path d="M60 15H70V25H60V15Z" fill="#F7A301"/>
<path d="M60 15H70V25H60V15Z" fill="#FF0000"/>
<path d="M45 35H55V45H45V35Z" fill="#F7A301"/>
<path d="M45 35H55V45H45V35Z" fill="#F7A301"/>
<path d="M45 35H55V45H45V35Z" fill="#FF0000"/>
<path d="M55 30H65V40H55V30Z" fill="#F7A301"/>
<path d="M55 30H65V40H55V30Z" fill="#F7A301"/>
<path d="M55 30H65V40H55V30Z" fill="#FF0000"/>
<path d="M40 5H50V15H40V5Z" fill="#F7A301"/>
<path d="M40 5H50V15H40V5Z" fill="#F7A301"/>
<path d="M40 5H50V15H40V5Z" fill="#FF0000"/>
<path d="M49 5H60V15H49V5Z" fill="#F7A301"/>
<path d="M49 5H60V15H49V5Z" fill="#F7A301"/>
<path d="M49 5H60V15H49V5Z" fill="#FF0000"/>
<path d="M30 24H40V35H30V24Z" fill="#F7A301"/>
<path d="M30 24H40V35H30V24Z" fill="#F7A301"/>
<path d="M30 24H40V35H30V24Z" fill="#FF0000"/>
<path d="M30 15H40V25H30V15Z" fill="#F7A301"/>
<path d="M30 15H40V25H30V15Z" fill="#F7A301"/>
<path d="M30 15H40V25H30V15Z" fill="#FF0000"/>
<path d="M35 20H45V30H35V20Z" fill="#F7A301"/>
<path d="M35 20H45V30H35V20Z" fill="#F7A301"/>
<path d="M35 20H45V30H35V20Z" fill="#FF0000"/>
<path d="M35 10H45V23H35V10Z" fill="#F7A301"/>
<path d="M35 10H45V23H35V10Z" fill="#F7A301"/>
<path d="M35 10H45V23H35V10Z" fill="#FF0000"/>
<path d="M35 24H45V40H35V24Z" fill="#F7A301"/>
<path d="M35 24H45V40H35V24Z" fill="#F7A301"/>
<path d="M35 24H45V40H35V24Z" fill="#FF0000"/>
</svg>
