<svg width="362" height="148" viewBox="0 0 362 148" fill="none" xmlns="http://www.w3.org/2000/svg">
<rect x="26" y="129" width="319" height="19" fill="#B4FAFC"/>
<rect y="112" width="41" height="17" fill="#B4FAFC"/>
<rect x="5" y="80" width="17" height="32" fill="#B4FAFC"/>
<rect x="22" y="64" width="16" height="16" fill="#B4FAFC"/>
<rect x="86" y="64" width="16" height="16" fill="#B4FAFC"/>
<rect x="74" y="113" width="206" height="16" fill="#B4FAFC"/>
<rect x="102" y="48" width="33" height="65" fill="#B4FAFC"/>
<rect x="135" y="81" width="16" height="32" fill="#B4FAFC"/>
<rect x="151" y="97" width="16" height="16" fill="#B4FAFC"/>
<rect x="216" y="81" width="32" height="32" fill="#B4FAFC"/>
<rect x="248" y="97" width="16" height="16" fill="#B4FAFC"/>
<rect x="118" y="32" width="17" height="16" fill="#B4FAFC"/>
<rect x="135" y="16" width="16" height="16" fill="#B4FAFC"/>
<rect x="232" y="48" width="16" height="33" fill="#B4FAFC"/>
<rect x="248" y="32" width="16" height="16" fill="#B4FAFC"/>
<rect x="313" y="113" width="49" height="16" fill="#B4FAFC"/>
<rect x="329" y="97" width="33" height="16" fill="#B4FAFC"/>
<rect x="345" y="81" width="17" height="16" fill="#B4FAFC"/>
<rect x="22" y="80" width="80" height="33" fill="white"/>
<rect x="41" y="113" width="33" height="16" fill="white"/>
<rect x="38" y="48" width="48" height="32" fill="white"/>
<rect x="135" y="32" width="97" height="49" fill="white"/>
<rect x="126" y="81" width="90" height="16" fill="white"/>
<rect x="118" y="97" width="81" height="16" fill="white"/>
<rect x="151" y="16" width="65" height="16" fill="white"/>
<rect x="151" width="32" height="16" fill="white"/>
<rect x="248" y="48" width="97" height="49" fill="white"/>
<rect x="264" y="97" width="65" height="16" fill="white"/>
<rect x="280" y="113" width="33" height="16" fill="white"/>
<rect x="345" y="48" width="17" height="33" fill="white"/>
<rect x="264" y="32" width="81" height="16" fill="white"/>
<rect x="264" y="16" width="65" height="16" fill="white"/>
<rect x="280" width="17" height="16" fill="white"/>
<rect x="199" y="97" width="17" height="16" fill="#B4FAFC"/>
</svg>
