<svg width="100" height="100" viewBox="0 0 100 100" fill="none" xmlns="http://www.w3.org/2000/svg">
<rect x="45" y="90" width="10" height="10" fill="#0F6436"/>
<rect x="45" y="80" width="10" height="13" fill="#0F6436"/>
<rect x="45" y="67" width="10" height="16" fill="#0F6436"/>
<rect x="45" y="60" width="10" height="10" fill="#0F6436"/>
<rect x="45" y="46" width="10" height="18" fill="#0F6436"/>
<rect x="47" y="40" width="13" height="10" fill="#0F6436"/>
<rect x="55" y="23" width="10" height="17" fill="#0F6436"/>
<rect x="55" y="20" width="17" height="10" fill="#0F6436"/>
<rect x="60" y="15" width="10" height="10" fill="#0F6436"/>
<rect x="65" y="20" width="10" height="10" fill="#0F6436"/>
<rect x="40" y="40" width="10" height="10" fill="#0F6436"/>
<rect x="40" y="59" width="10" height="10" fill="#0F6436"/>
<rect x="35" y="55" width="15" height="10" fill="#0F6436"/>
<rect x="30" y="51" width="10" height="10" fill="#0F6436"/>
<rect x="25" y="47" width="10" height="10" fill="#0F6436"/>
<rect x="25" y="47" width="10" height="10" fill="#0F6436"/>
<rect x="48" y="59" width="12" height="10" fill="#0F6436"/>
<rect x="51" y="55" width="14" height="10" fill="#0F6436"/>
<rect x="60" y="51" width="10" height="10" fill="#0F6436"/>
<rect x="65" y="47" width="10" height="10" fill="#0F6436"/>
<rect x="65" y="47" width="10" height="10" fill="#0F6436"/>
<rect x="35" y="27" width="10" height="13" fill="#0F6436"/>
<rect x="31" y="20" width="14" height="10" fill="#0F6436"/>
<rect x="25" y="20" width="10" height="10" fill="#0F6436"/>
<rect x="30" y="15" width="10" height="10" fill="#0F6436"/>
<rect x="41" y="30" width="18" height="15" fill="#0F6436"/>
</svg>
