<svg width="100" height="100" viewBox="0 0 100 100" fill="none" xmlns="http://www.w3.org/2000/svg">
<rect x="45" y="90" width="10" height="10" fill="#0F6436"/>
<rect x="45" y="80" width="10" height="13" fill="#0F6436"/>
<rect x="45" y="67" width="10" height="17" fill="#0F6436"/>
<rect x="45" y="60" width="10" height="10" fill="#0F6436"/>
<rect x="45" y="48" width="10" height="12" fill="#0F6436"/>
<rect x="50" y="40" width="10" height="10" fill="#0F6436"/>
<rect x="55" y="35" width="10" height="10" fill="#0F6436"/>
<rect x="60" y="30" width="10" height="10" fill="#0F6436"/>
<rect x="65" y="25" width="10" height="10" fill="#0F6436"/>
<rect x="40" y="40" width="12" height="10" fill="#0F6436"/>
<rect x="40" y="59" width="10" height="10" fill="#0F6436"/>
<rect x="35" y="55" width="13" height="10" fill="#0F6436"/>
<rect x="30" y="51" width="10" height="10" fill="#0F6436"/>
<rect x="25" y="47" width="10" height="10" fill="#0F6436"/>
<rect x="25" y="47" width="10" height="10" fill="#0F6436"/>
<rect x="48" y="59" width="12" height="10" fill="#0F6436"/>
<rect x="51" y="55" width="14" height="10" fill="#0F6436"/>
<rect x="60" y="51" width="10" height="10" fill="#0F6436"/>
<rect x="65" y="47" width="10" height="10" fill="#0F6436"/>
<rect x="65" y="47" width="10" height="10" fill="#0F6436"/>
<rect x="43" y="35" width="14" height="10" fill="#0F6436"/>
<rect x="35" y="35" width="10" height="10" fill="#0F6436"/>
<rect x="30" y="30" width="10" height="10" fill="#0F6436"/>
<rect x="25" y="25" width="10" height="10" fill="#0F6436"/>
<rect x="45" y="20" width="10" height="10" fill="#F7A301"/>
<rect x="45" y="20" width="10" height="10" fill="#F7A301"/>
<rect x="45" y="20" width="10" height="10" fill="#F7A301"/>
<path d="M55 20H65V30H55V20Z" fill="#F7A301"/>
<path d="M55 20H65V30H55V20Z" fill="#F7A301"/>
<path d="M55 20H65V30H55V20Z" fill="#FF0000"/>
<path d="M45 30H55V40H45V30Z" fill="#F7A301"/>
<path d="M45 30H55V40H45V30Z" fill="#F7A301"/>
<path d="M45 30H55V40H45V30Z" fill="#FF0000"/>
<path d="M35 20H45V30H35V20Z" fill="#F7A301"/>
<path d="M35 20H45V30H35V20Z" fill="#F7A301"/>
<path d="M35 20H45V30H35V20Z" fill="#FF0000"/>
<path d="M45 10H55V20H45V10Z" fill="#F7A301"/>
<path d="M45 10H55V20H45V10Z" fill="#F7A301"/>
<path d="M45 10H55V20H45V10Z" fill="#FF0000"/>
<path d="M52 13H62V23H52V13Z" fill="#F7A301"/>
<path d="M52 13H62V23H52V13Z" fill="#F7A301"/>
<path d="M52 13H62V23H52V13Z" fill="#FF0000"/>
<path d="M52 27H62V37H52V27Z" fill="#F7A301"/>
<path d="M52 27H62V37H52V27Z" fill="#F7A301"/>
<path d="M52 27H62V37H52V27Z" fill="#FF0000"/>
<path d="M38 13H48V23H38V13Z" fill="#F7A301"/>
<path d="M38 13H48V23H38V13Z" fill="#F7A301"/>
<path d="M38 13H48V23H38V13Z" fill="#FF0000"/>
<path d="M38 27H48V37H38V27Z" fill="#F7A301"/>
<path d="M38 27H48V37H38V27Z" fill="#F7A301"/>
<path d="M38 27H48V37H38V27Z" fill="#FF0000"/>
</svg>
