<svg width="100" height="100" viewBox="0 0 100 100" fill="none" xmlns="http://www.w3.org/2000/svg">
<rect x="45" y="90" width="10" height="10" fill="#0F6436"/>
<rect x="45" y="80" width="10" height="10" fill="#0F6436"/>
<rect x="45" y="70" width="10" height="10" fill="#0F6436"/>
<rect x="45" y="60" width="10" height="10" fill="#0F6436"/>
<rect x="45" y="50" width="10" height="10" fill="#0F6436"/>
<rect x="50" y="40" width="10" height="10" fill="#0F6436"/>
<rect x="55" y="35" width="10" height="10" fill="#0F6436"/>
<rect x="60" y="30" width="10" height="10" fill="#0F6436"/>
<rect x="65" y="25" width="10" height="10" fill="#0F6436"/>
<rect x="40" y="40" width="10" height="10" fill="#0F6436"/>
<rect x="40" y="59" width="10" height="10" fill="#0F6436"/>
<rect x="35" y="55" width="10" height="10" fill="#0F6436"/>
<rect x="30" y="51" width="10" height="10" fill="#0F6436"/>
<rect x="25" y="47" width="10" height="10" fill="#0F6436"/>
<rect x="25" y="47" width="10" height="10" fill="#0F6436"/>
<rect x="50" y="59" width="10" height="10" fill="#0F6436"/>
<rect x="55" y="55" width="10" height="10" fill="#0F6436"/>
<rect x="60" y="51" width="10" height="10" fill="#0F6436"/>
<rect x="65" y="47" width="10" height="10" fill="#0F6436"/>
<rect x="65" y="47" width="10" height="10" fill="#0F6436"/>
<rect x="45" y="35" width="10" height="10" fill="#0F6436"/>
<rect x="35" y="35" width="10" height="10" fill="#0F6436"/>
<rect x="30" y="30" width="10" height="10" fill="#0F6436"/>
<rect x="25" y="25" width="10" height="10" fill="#0F6436"/>
<rect x="45" y="20" width="10" height="10" fill="#F7A301"/>
<rect x="45" y="20" width="10" height="10" fill="#F7A301"/>
<rect x="45" y="20" width="10" height="10" fill="#F7A301"/>
<rect x="55" y="20" width="10" height="10" fill="#F7A301"/>
<rect x="55" y="20" width="10" height="10" fill="#F7A301"/>
<rect x="55" y="20" width="10" height="10" fill="#FF0000"/>
<rect x="45" y="30" width="10" height="10" fill="#F7A301"/>
<rect x="45" y="30" width="10" height="10" fill="#F7A301"/>
<rect x="45" y="30" width="10" height="10" fill="#FF0000"/>
<rect x="35" y="20" width="10" height="10" fill="#F7A301"/>
<rect x="35" y="20" width="10" height="10" fill="#F7A301"/>
<rect x="35" y="20" width="10" height="10" fill="#FF0000"/>
<rect x="45" y="10" width="10" height="10" fill="#F7A301"/>
<rect x="45" y="10" width="10" height="10" fill="#F7A301"/>
<rect x="45" y="10" width="10" height="10" fill="#FF0000"/>
<rect x="52" y="13" width="10" height="10" fill="#F7A301"/>
<rect x="52" y="13" width="10" height="10" fill="#F7A301"/>
<rect x="52" y="13" width="10" height="10" fill="#FF0000"/>
<rect x="52" y="27" width="10" height="10" fill="#F7A301"/>
<rect x="52" y="27" width="10" height="10" fill="#F7A301"/>
<rect x="52" y="27" width="10" height="10" fill="#FF0000"/>
<rect x="38" y="13" width="10" height="10" fill="#F7A301"/>
<rect x="38" y="13" width="10" height="10" fill="#F7A301"/>
<rect x="38" y="13" width="10" height="10" fill="#FF0000"/>
<rect x="38" y="27" width="10" height="10" fill="#F7A301"/>
<rect x="38" y="27" width="10" height="10" fill="#F7A301"/>
<rect x="38" y="27" width="10" height="10" fill="#FF0000"/>
</svg>
