<svg width="470" height="180" viewBox="0 0 470 180" fill="none" xmlns="http://www.w3.org/2000/svg">
<rect x="217" y="52" width="25" height="20" fill="#B4FAFC"/>
<rect x="356" y="52" width="16" height="16" fill="#B4FAFC"/>
<rect x="315" y="90" width="16" height="53" fill="#B4FAFC"/>
<rect x="288" y="122" width="27" height="28" fill="#B4FAFC"/>
<rect x="16" y="54" width="16" height="95" fill="#B4FAFC"/>
<rect x="98" y="132" width="129" height="18" fill="#B4FAFC"/>
<rect x="56" y="139" width="381" height="41" fill="#B4FAFC"/>
<rect x="32" y="127" width="146" height="38" fill="#B4FAFC"/>
<rect x="97" y="84" width="65" height="20" fill="#B4FAFC"/>
<rect x="210" y="84" width="16" height="16" fill="#B4FAFC"/>
<rect x="146" y="100" width="80" height="32" fill="#B4FAFC"/>
<rect x="97" y="49" width="16" height="39" fill="#B4FAFC"/>
<rect x="210" y="133" width="194" height="16" fill="#B4FAFC"/>
<rect x="220" y="68" width="39" height="65" fill="#B4FAFC"/>
<rect x="248" y="101" width="27" height="32" fill="#B4FAFC"/>
<rect x="270" y="117" width="34" height="20" fill="#B4FAFC"/>
<rect x="222" y="30" width="16" height="25" fill="#B4FAFC"/>
<rect x="235" y="20" width="16" height="22" fill="#B4FAFC"/>
<rect x="340" y="101" width="32" height="32" fill="#B4FAFC"/>
<rect x="372" y="117" width="16" height="16" fill="#B4FAFC"/>
<rect x="242" y="52" width="17" height="16" fill="#B4FAFC"/>
<rect x="206" y="68" width="21" height="18" fill="#B4FAFC"/>
<rect x="259" y="36" width="16" height="16" fill="#B4FAFC"/>
<rect x="194" y="84" width="28" height="22" fill="#B4FAFC"/>
<rect x="356" y="68" width="16" height="33" fill="#B4FAFC"/>
<rect x="327" y="50" width="29" height="100" fill="#B4FAFC"/>
<rect x="372" y="52" width="16" height="16" fill="#B4FAFC"/>
<rect x="437" y="131" width="25" height="18" fill="#B4FAFC"/>
<rect x="453" y="117" width="17" height="18" fill="#B4FAFC"/>
<rect y="88" width="48" height="44" fill="#B4FAFC"/>
<rect x="421" y="131" width="28" height="30" fill="#B4FAFC"/>
<rect x="32" y="23" width="49" height="86" fill="white"/>
<rect x="48" y="72" width="49" height="51" fill="white"/>
<rect x="66" y="39" width="31" height="33" fill="white"/>
<rect x="104" y="23" width="86" height="36" fill="white"/>
<rect x="110" y="55" width="96" height="29" fill="white"/>
<rect x="174" y="38" width="32" height="16" fill="white"/>
<rect x="185" y="52" width="32" height="16" fill="white"/>
<rect x="126" width="48" height="32" fill="white"/>
<rect x="234" y="41" width="97" height="49" fill="white"/>
<rect x="250" y="82" width="65" height="24" fill="white"/>
<rect x="120" y="78" width="74" height="22" fill="white"/>
<rect x="266" y="100" width="49" height="22" fill="white"/>
<rect x="250" y="25" width="65" height="24" fill="white"/>
<rect x="250" y="9" width="32" height="21" fill="white"/>
<rect x="130" y="92" width="55" height="24" fill="white"/>
<rect x="340" y="82" width="113" height="49" fill="white"/>
<rect x="356" y="127" width="65" height="20" fill="white"/>
<rect x="372" y="143" width="33" height="20" fill="white"/>
<rect x="356" y="66" width="81" height="26" fill="white"/>
<rect x="356" y="50" width="65" height="22" fill="white"/>
<rect x="372" y="34" width="17" height="21" fill="white"/>
<rect x="48" y="117" width="65" height="15" fill="white"/>
<rect x="40" y="108" width="16" height="14" fill="white"/>
<rect x="85" y="100" width="61" height="32" fill="#B4FAFC"/>
<rect x="22" y="54" width="32" height="16" fill="white"/>
</svg>
